<?xml version="1.0" encoding="utf-8"?>
<!-- Generator: Adobe Illustrator 15.0.0, SVG Export Plug-In . SVG Version: 6.00 Build 0)  -->
<!DOCTYPE svg PUBLIC "-//W3C//DTD SVG 1.1//EN" "http://www.w3.org/Graphics/SVG/1.1/DTD/svg11.dtd">
<svg version="1.1" id="Warstwa_1" xmlns="http://www.w3.org/2000/svg" xmlns:xlink="http://www.w3.org/1999/xlink" x="0px" y="0px"
	 width="538.583px" height="538.584px" viewBox="0 0 538.583 538.584" enable-background="new 0 0 538.583 538.584"
	 xml:space="preserve">
<path fill="none" stroke="#000000" stroke-linecap="round" stroke-linejoin="round" d="M142.003,269.684l19.9-19.9 M142.003,524.784
	h19.9 M161.903,249.783v275 M142.003,269.684v255.1 M377.303,34.383l19.9-19.899 M377.303,524.784h19.9 M397.204,14.483v510.301
	 M377.303,34.383v490.401 M161.903,417.083h215.4 M161.903,451.084h215.4 M161.903,453.884h215.4 M161.903,487.884h215.4
	 M161.903,524.784h215.4 M161.903,490.784h215.4 M165.403,380.182h211.9 M161.903,414.182h215.4 M161.903,297.883l215.4-215.399
	 M161.903,249.783l215.4-215.4 M377.303,140.183L377.303,140.183 M377.303,156.183v0.1 M161.903,383.682v-28.101 M377.303,168.283
	l-215.4,215.399 M377.303,140.183v28.1 M377.303,140.183l-215.4,215.398 M161.903,323.182l215.4-215.499 M161.903,305.083
	l215.4-215.398 M161.903,330.383l215.4-215.399 M161.903,348.383l215.4-215.399 M202.203,343.383h175.1 M168.203,377.383h209.1
	 M239.103,306.483h138.2 M205.103,340.483h172.2 M275.902,269.684h101.399 M241.902,303.682h135.399 M278.502,267.083h98.801
	 M312.502,233.083h64.801 M315.102,230.482h62.201 M349.102,196.483h28.201 M377.303,159.983L377.303,159.983 M351.602,193.983
	h25.701"/>
</svg>
