<?xml version="1.0" encoding="utf-8"?>
<!-- Generator: Adobe Illustrator 15.0.0, SVG Export Plug-In . SVG Version: 6.00 Build 0)  -->
<!DOCTYPE svg PUBLIC "-//W3C//DTD SVG 1.1//EN" "http://www.w3.org/Graphics/SVG/1.1/DTD/svg11.dtd">
<svg version="1.1" id="Warstwa_1" xmlns="http://www.w3.org/2000/svg" xmlns:xlink="http://www.w3.org/1999/xlink" x="0px" y="0px"
	 width="538.583px" height="538.584px" viewBox="0 0 538.583 538.584" enable-background="new 0 0 538.583 538.584"
	 xml:space="preserve">
<path fill="none" stroke="#000000" stroke-linecap="round" stroke-linejoin="round" d="M396.5,14.483v510.301 M376.7,14.483H396.5
	 M376.7,14.483v510.301 M376.7,524.784H396.5 M141.4,14.483h19.9 M141.4,524.784h19.9 M161.3,14.483v510.301 M141.4,14.483v510.301
	 M161.3,524.784h215.4 M161.3,490.784h215.4 M161.3,454.182h215.4 M161.3,488.182h215.4 M161.3,451.584h215.4 M161.3,417.583h215.4
	 M161.3,415.083h215.4 M161.3,381.083h215.4 M161.3,378.483h215.4 M161.3,344.483h215.4 M161.3,341.883h215.4 M161.3,307.883h215.4
	 M161.3,271.383h215.4 M161.3,305.383h215.4 M161.3,234.783h215.4 M161.3,268.783h215.4 M161.3,198.183h215.4 M161.3,232.184h215.4
	 M161.3,161.683h215.4 M161.3,195.683h215.4 M161.3,125.083h215.4 M161.3,159.083h215.4 M161.3,14.483h215.4 M161.3,48.483h215.4
	 M161.3,89.383h215.4 M161.3,102.083h215.4 M161.3,71.483h215.4 M161.3,84.283h215.4 M161.3,66.383h215.4 M161.3,53.683h215.4
	 M161.3,107.183h215.4 M161.3,119.983h215.4 M275.4,488.182v2.602 M275.4,451.584v2.6 M275.4,415.083v2.5 M275.4,378.483v2.6
	 M275.4,341.883v2.603 M275.4,305.383v2.5 M275.4,268.783v2.6 M275.4,232.184v2.6 M275.4,195.683v2.5 M275.4,159.083v2.601
	 M275.4,119.983v5.1 M275.4,102.083v5.101 M275.4,84.283v5.1 M275.4,66.383v5.101 M275.4,48.483v5.2 M262.6,488.182v2.602
	 M262.6,451.584v2.6 M262.6,415.083v2.5 M262.6,378.483v2.6 M262.6,341.883v2.603 M262.6,305.383v2.5 M262.6,268.783v2.6
	 M262.6,232.184v2.6 M262.6,195.683v2.5 M262.6,159.083v2.601 M262.6,119.983v5.1 M262.6,102.083v5.101 M262.6,84.283v5.1
	 M262.6,66.383v5.101 M262.6,48.483v5.2"/>
</svg>
