<?xml version="1.0" encoding="utf-8"?>
<!-- Generator: Adobe Illustrator 15.0.0, SVG Export Plug-In . SVG Version: 6.00 Build 0)  -->
<!DOCTYPE svg PUBLIC "-//W3C//DTD SVG 1.1//EN" "http://www.w3.org/Graphics/SVG/1.1/DTD/svg11.dtd">
<svg version="1.1" id="Warstwa_1" xmlns="http://www.w3.org/2000/svg" xmlns:xlink="http://www.w3.org/1999/xlink" x="0px" y="0px"
	 width="538.583px" height="538.584px" viewBox="0 0 538.583 538.584" enable-background="new 0 0 538.583 538.584"
	 xml:space="preserve">
<path fill="none" stroke="#000000" stroke-linecap="round" stroke-linejoin="round" d="M504.901,269.283v255.101 M504.901,524.384
	H524.7 M524.7,269.283v255.101 M504.901,269.283H524.7 M14.5,524.384h19.8 M14.5,269.283v255.101 M14.5,269.283h19.8 M34.3,269.283
	v255.101 M34.3,453.483h470.601 M34.3,487.584h470.601 M34.3,416.682h470.601 M34.3,450.682h470.601 M34.3,413.883h470.601
	 M34.3,379.784h470.601 M34.3,269.283h470.601 M34.3,303.284h470.601 M34.3,490.384h470.601 M34.3,524.384h470.601 M34.3,361.983
	h470.601 M34.3,374.682h470.601 M34.3,356.883h470.601 M34.3,344.083h470.601 M34.3,326.284h470.601 M34.3,338.981h470.601
	 M34.3,321.184h470.601 M34.3,308.383h470.601 M276.1,487.584v2.801 M276.1,450.682v2.803 M276.1,413.883v2.8 M276.1,374.682v5.102
	 M276.1,356.883v5.103 M276.1,338.981v5.102 M276.1,321.184v5.1 M276.1,303.284v5.101 M263.3,487.584v2.801 M263.3,450.682v2.803
	 M263.3,413.883v2.8 M263.3,374.682v5.102 M263.3,356.883v5.103 M263.3,338.981v5.102 M263.3,321.184v5.1 M263.3,303.284v5.101
	 M155.2,487.584v2.801 M155.2,450.682v2.803 M155.2,413.883v2.8 M155.2,374.682v5.102 M155.2,356.883v5.103 M155.2,338.981v5.102
	 M155.2,321.184v5.1 M155.2,303.284v5.101 M142.5,487.584v2.801 M142.5,450.682v2.803 M142.5,413.883v2.8 M142.5,374.682v5.102
	 M142.5,356.883v5.103 M142.5,338.981v5.102 M142.5,321.184v5.1 M142.5,303.284v5.101 M396.901,487.584v2.801 M396.901,450.682
	v2.803 M396.901,413.883v2.8 M396.901,374.682v5.102 M396.901,356.883v5.103 M396.901,338.981v5.102 M396.901,321.184v5.1
	 M396.901,303.284v5.101 M384.1,487.584v2.801 M384.1,450.682v2.803 M384.1,413.883v2.8 M384.1,374.682v5.102 M384.1,356.883v5.103
	 M384.1,338.981v5.102 M384.1,321.184v5.1 M384.1,303.284v5.101"/>
</svg>
