<?xml version="1.0" encoding="utf-8"?>
<!-- Generator: Adobe Illustrator 15.0.0, SVG Export Plug-In . SVG Version: 6.00 Build 0)  -->
<!DOCTYPE svg PUBLIC "-//W3C//DTD SVG 1.1//EN" "http://www.w3.org/Graphics/SVG/1.1/DTD/svg11.dtd">
<svg version="1.1" id="Warstwa_1" xmlns="http://www.w3.org/2000/svg" xmlns:xlink="http://www.w3.org/1999/xlink" x="0px" y="0px"
	 width="538.583px" height="538.584px" viewBox="0 0 538.583 538.584" enable-background="new 0 0 538.583 538.584"
	 xml:space="preserve">
<path fill="none" stroke="#000000" stroke-linecap="round" stroke-linejoin="round" d="M505,525.182h19.9 M524.901,14.883v510.3
	 M505,14.883h19.9 M505,14.883v510.3 M14.6,525.182h19.9 M34.5,14.883v510.3 M14.6,14.883h19.9 M14.6,14.883v510.3 M34.5,525.182
	H505 M34.5,491.084H505 M34.5,488.584H505 M34.5,454.584H505 M34.5,417.983H505 M34.5,451.983H505 M34.5,381.383H505 M34.5,415.483
	H505 M34.5,344.883H505 M34.5,378.883H505 M34.5,308.284H505 M34.5,342.284H505 M34.5,271.683H505 M34.5,305.784H505 M34.5,269.184
	H505 M34.5,235.184H505 M34.5,232.583H505 M34.5,198.583H505 M34.5,161.983H505 M34.5,196.083H505 M34.5,125.483H505 M34.5,159.483
	H505 M34.5,14.883H505 M34.5,48.883H505 M34.5,107.583H505 M34.5,120.383H505 M34.5,71.883H505 M34.5,84.683H505 M34.5,53.983H505
	 M34.5,66.783H505 M396.901,488.584v2.5 M396.901,451.983v2.601 M396.901,415.483v2.5 M396.901,378.883v2.5 M396.901,342.284v2.6
	 M396.901,305.784v2.5 M396.901,269.184v2.499 M396.901,232.583v2.602 M396.901,196.083v2.5 M396.901,159.483v2.5 M396.901,120.383
	v5.101 M396.901,102.483v5.1 M396.901,84.683v5.1 M396.901,66.783v5.1 M396.901,48.883v5.101 M384.2,488.584v2.5 M384.2,451.983
	v2.601 M384.2,415.483v2.5 M384.2,378.883v2.5 M384.2,342.284v2.6 M384.2,305.784v2.5 M384.2,269.184v2.499 M384.2,232.583v2.602
	 M384.2,196.083v2.5 M384.2,159.483v2.5 M384.2,120.383v5.101 M384.2,102.483v5.1 M384.2,84.683v5.1 M384.2,66.783v5.1
	 M384.2,48.883v5.101 M276.1,488.584v2.5 M276.1,451.983v2.601 M276.1,415.483v2.5 M276.1,378.883v2.5 M276.1,342.284v2.6
	 M276.1,305.784v2.5 M276.1,269.184v2.499 M276.1,232.583v2.602 M276.1,196.083v2.5 M276.1,159.483v2.5 M276.1,120.383v5.101
	 M276.1,102.483v5.1 M276.1,84.683v5.1 M276.1,66.783v5.1 M276.1,48.883v5.101 M263.4,488.584v2.5 M263.4,451.983v2.601
	 M263.4,415.483v2.5 M263.4,378.883v2.5 M263.4,342.284v2.6 M263.4,305.784v2.5 M263.4,269.184v2.499 M263.4,232.583v2.602
	 M263.4,196.083v2.5 M263.4,159.483v2.5 M263.4,120.383v5.101 M263.4,102.483v5.1 M263.4,84.683v5.1 M263.4,66.783v5.1
	 M263.4,48.883v5.101 M155.3,488.584v2.5 M155.3,451.983v2.601 M155.3,415.483v2.5 M155.3,378.883v2.5 M155.3,342.284v2.6
	 M155.3,305.784v2.5 M155.3,269.184v2.499 M155.3,232.583v2.602 M155.3,196.083v2.5 M155.3,159.483v2.5 M155.3,120.383v5.101
	 M155.3,102.483v5.1 M155.3,84.683v5.1 M155.3,66.783v5.1 M155.3,48.883v5.101 M142.5,488.584v2.5 M142.5,451.983v2.601
	 M142.5,415.483v2.5 M142.5,378.883v2.5 M142.5,342.284v2.6 M142.5,305.784v2.5 M142.5,269.184v2.499 M142.5,232.583v2.602
	 M142.5,196.083v2.5 M142.5,159.483v2.5 M142.5,120.383v5.101 M142.5,102.483v5.1 M142.5,84.683v5.1 M142.5,66.783v5.1
	 M142.5,48.883v5.101 M34.5,89.783H505 M34.5,102.483H505"/>
</svg>
